<svg xmlns="http://www.w3.org/2000/svg" xmlns:xlink="http://www.w3.org/1999/xlink" viewBox="0 0 358 186"><defs><style>.cls-1{fill:none;}.cls-2{isolation:isolate;}.cls-3{fill:#58595b;}.cls-4{fill:#799900;}.cls-5{clip-path:url(#clip-path);}.cls-6{clip-path:url(#clip-path-2);}.cls-7{clip-path:url(#clip-path-3);}.cls-8{clip-path:url(#clip-path-4);}.cls-9{mix-blend-mode:multiply;}.cls-10{clip-path:url(#clip-path-5);}.cls-11{fill:#fff;}.cls-12{clip-path:url(#clip-path-7);}.cls-13{fill:#010101;}</style><clipPath id="clip-path"><rect class="cls-1" x="38.14" y="73.16" width="283.33" height="61.6"/></clipPath><clipPath id="clip-path-2"><rect class="cls-1" x="21.46" y="20.28" width="318.18" height="149.64"/></clipPath><clipPath id="clip-path-3"><rect class="cls-1" x="106.38" y="45.6" width="94.72" height="33.92"/></clipPath><clipPath id="clip-path-4"><rect class="cls-1" x="21.46" y="20.28" width="318.18" height="149.64"/></clipPath><clipPath id="clip-path-5"><rect class="cls-1" x="-1.39" y="2.5" width="363.88" height="169.95"/></clipPath><clipPath id="clip-path-7"><rect class="cls-1" x="37.46" y="71.66" width="290.22" height="63.1"/></clipPath></defs><title>salmon_nation_splash_page_7_10_17</title><g class="cls-2"><g id="Layer_1" data-name="Layer 1"><path class="cls-3" d="M130.8,117.48a13.22,13.22,0,0,1-4.61.85c-7.12,0-9.12-7.07-9.12-12.33h14.19c0-4.21-1.31-9.48-9.18-9.48-6.72,0-10.48,3.66-10.48,11.23,0,8.32,4.56,12.84,12.28,12.84a19.79,19.79,0,0,0,6.92-1.31v-1.8Zm-13.74-13.54c0-2,1-5.71,4.81-5.71,3.46,0,4.31,2.56,4.31,5.71Z"/><path class="cls-3" d="M157.57,119.38a15.18,15.18,0,0,1-6.42,1.21c-8,0-11.78-4.82-11.78-13.09,0-6,2.76-11,10.23-11,3.91,0,8.12,2,8.12,5.16a2.78,2.78,0,0,1-3.06,2.71c-3.06,0-2.71-3.51-3.06-4.51a2.13,2.13,0,0,0-2.41-1.65c-3.11,0-4.36,3.11-4.36,8.22s1.75,11.88,8.27,11.88a16.63,16.63,0,0,0,4.47-.75v1.8Z"/><path class="cls-3" d="M176.83,120.59c7.27,0,10.73-3.91,10.73-12s-3.46-12-10.73-12-10.73,3.91-10.73,12,3.46,12,10.73,12Zm-5.26-12c0-5.31.9-10.33,5.26-10.33s5.27,5,5.27,10.33-.9,10.33-5.27,10.33-5.26-5-5.26-10.33Z"/><path class="cls-3" d="M210.72,120a8.08,8.08,0,0,1-2.86.55c-4.41,0-8.12-.7-8.12-6.57V99.08h-4.06v-1.4c5.92,0,7.42-5.16,7.67-9h1.45V97h6.52v2.05H204.8V114c0,3.36,1.45,4.31,4.06,4.31a5.77,5.77,0,0,0,1.86-.3v2Z"/><path class="cls-3" d="M219.94,119c2.91,0,3.76-.9,3.76-4.36V102.84c0-3.56-1.8-4-3.76-4v-1.1l8.83-1.2v5.82h.1c.85-2.26,2.71-5.82,6.82-5.82a2.73,2.73,0,0,1,2.71,2.61,2.66,2.66,0,0,1-2.71,2.81c-1.81,0-1.45-1.15-3.11-1.15s-3.81,3.06-3.81,8.22v5.62c0,3.46.85,4.36,3.76,4.36v1.1H219.94V119Z"/><path class="cls-3" d="M263.76,114.67h-.1c-1.05,2-3.21,5.92-7.62,5.92-5.62,0-6.67-2.86-6.67-6.67V102.84c0-3.56-1.81-4-3.76-4v-1.1l8.82-1.2v13.34c0,6.07.9,7.67,3.82,7.67,2.61,0,5.51-5.21,5.51-8.32v-6.37c0-3.56-1.81-4-3.76-4v-1.1l8.82-1.2v17.75c0,3.56,1.86,4,3.76,4v1.1l-8.82,1.21v-5.92Z"/><path class="cls-3" d="M294.94,103.29c-.2-1.75-1.25-5.06-5-5.06a3.44,3.44,0,0,0-3.71,3.26c0,3.26,5.77,4.51,8.87,6.92a6.54,6.54,0,0,1,2.66,5.37c0,4.11-3.26,6.82-9,6.82a29.54,29.54,0,0,1-7-.9l-.3-6.72H283a5.67,5.67,0,0,0,5.66,5.92c2.21,0,4.56-1.26,4.56-3.81,0-3.26-4.91-4.21-7.92-6.27-2.46-1.7-3.61-3.06-3.61-5.82,0-4.51,4-6.47,8.73-6.47a21.53,21.53,0,0,1,5.71.85l.3,5.92Z"/><path class="cls-3" d="M320.86,120a8.06,8.06,0,0,1-2.86.55c-4.41,0-8.12-.7-8.12-6.57V99.08h-4.06v-1.4c5.92,0,7.42-5.16,7.67-9H315V97h6.51v2.05H315V114c0,3.36,1.45,4.31,4.06,4.31a5.74,5.74,0,0,0,1.85-.3v2Z"/><path class="cls-4" d="M73.49,104.91c0,3.22-3.46,4-6.26,3.16-3.58-1.43-3.69-6.53-.12-8.68a5.34,5.34,0,0,1,7.39,2.77,5.14,5.14,0,0,1,.3,2.29c-.2.23-1.31-.27-1.31.45Zm3-6c-1.79-2.86-5-3.13-7.9-3.13a9.53,9.53,0,0,0-5,2.5c-1.08,1.79-1.94,3.46-1.58,5.6,1.27,5.1,3.78,8.48,10.06,7.35,2.5-.72,3.72-3.44,4.31-6.37.36,0,2,.16,2.12,0a15.92,15.92,0,0,0-2-5.93Z"/><path class="cls-4" d="M69.56,83.86a4.71,4.71,0,0,1,2.33.09,7.31,7.31,0,0,1,0,3.07c-1.82.09-8.14,1.43-8.47,1.1s-2-3-1-3a27.45,27.45,0,0,1,7.07-1.28Z"/><path class="cls-4" d="M50.24,106.54c.09-.41,2.69-.4,2.8-.27s1.62,6.24,1.85,6.56.29.74,0,1-1.9,1-1.9,1-.34.22-.56-.22-2.3-7.25-2.14-8Z"/><path class="cls-4" d="M55.08,90.3c.56-.11,2.13,1,2.24,1.34s-1.91,3.7-2.13,4.26a10.29,10.29,0,0,1-1.57,2.47c-.34.22-2.24-.56-2.58-.78s.9-2.35,1.12-3.14a31.73,31.73,0,0,1,2.92-4.15Z"/><path class="cls-4" d="M60.91,118.69c.45,0,2.24.78,3.25,1s3.37.45,3.37.45a.54.54,0,0,1,.22.45c0,.33-.56,2.69-.56,2.69a34.88,34.88,0,0,1-3.48-.56c-.67-.22-3.14-1.57-3.48-1.57s-.22-.45-.22-.45l.9-2Z"/><path class="cls-4" d="M74.26,119.24S80.09,116,80.43,116s2.13,1.91,2.13,1.91l-.11.34S80,120,79.08,120.48s-4.23,2.24-4.6,2.13-.79-2.47-.67-2.8a1.28,1.28,0,0,1,.45-.56Z"/><path class="cls-4" d="M85.48,104.44c.33-.45,2.21-.16,2.21-.16a.43.43,0,0,1,.48.27,29.26,29.26,0,0,1-.34,3.81,20,20,0,0,1-.9,4c-.2.12-.47-.06-.47-.06s-2.32-.81-2.44-1.29,1.46-6.62,1.46-6.62Z"/><path class="cls-4" d="M86.88,93.52s-1.77,1.76-2.44,1.76S82.78,93.56,82,92.55a17.9,17.9,0,0,0-2.8-2.92c-.34-.11-.11-.67-.11-.67a12.44,12.44,0,0,1,1.35-1.68.63.63,0,0,1,.67,0s2.58,2.13,2.92,2.58c.93,1.24,1,1.09,2.86,3.67Z"/><g class="cls-5"><path class="cls-4" d="M80.65,104.21c0,.1-.05.55-.33.61-.59.15-1.58-.16-1.58.29a12.84,12.84,0,0,1-1,3.81,8.25,8.25,0,0,1-2.13,3,16.33,16.33,0,0,1-3.82,2.13,12.41,12.41,0,0,1-4,.45c-1-.22-3.37-.34-4.94-2.13s-3.48-4.49-3.48-5.27-.9-3.25-.22-5.83,1.28-4.32,3.26-6a6.85,6.85,0,0,1,4.15-1.76c1.79-.45,3.25-.79,4.37-.45s4,1.12,4.94,1.91a11.47,11.47,0,0,1,3.59,4.15,9.68,9.68,0,0,1,1.23,5Zm1.93.07a18.1,18.1,0,0,0,2.56,0,.42.42,0,0,0,.22-.45s0-2.81-.11-4a18.74,18.74,0,0,0-.76-4.11.35.35,0,0,0-.47-.05l-2,.77s-1.46-1.77-2.36-2.67a15.94,15.94,0,0,1-2.13-2.22c-.14-.43,1-1.55,1.19-1.85s-.07-.41-.07-.41-2.69-1-3.25-1.23-3.42-1-3.65-.71-.28,1.83-.5,2.39-2,.34-3.59.45-3.24.56-3.48.47-.83-2.5-1.23-2.49c-.71,0-4.6,2.8-5.16,3.7,0,0-.56.34-.11.56s1.46,1.35,1.46,1.8a8,8,0,0,1-1.23,2.36c-.34.45-.79,2.36-1.24,2.69s-2.24-.45-2.58-.56a.23.23,0,0,0-.34.22s-.56,6.5-.56,6.84-.11.56.56.56,1.68-.45,2-.23,1.46,4.49,1.57,5a1.22,1.22,0,0,1-.15,1.12c-.19.19-1.42.57-1.76.79a.63.63,0,0,0-.11,1c.33.34,2.24,1.91,2.58,2.36s3,2.24,3.36,2,.23-.45.23-.45.22-1.68.67-1.79a23.64,23.64,0,0,1,5.39,1.35c.45.34.11,2.24.11,2.24s.08.44.45.45,2.4-.41,2.8-.45c1.08-.11,2,0,2.36-.11a.81.81,0,0,0,.45-.45l-.45-2.36s1.91-1.12,2.47-1.35a20.85,20.85,0,0,1,2.81-1.35c.45,0,1.41,1.65,1.77,1.65s1.37-1.32,1.93-2.21,1.61-1.9,1.61-2.23-1.83-1-2.17-1.48.34-1.91.56-2.58a21.24,21.24,0,0,0,.36-3.07Z"/><path class="cls-4" d="M97.37,98.72c-.09.28-1.32.09-1.41.47s.38,3.48.38,5.27-.52,7.91-1.22,9.22c-.6,1.13-1,2.16-1.41,3a14.93,14.93,0,0,1-1.5,3.2c-.42.51-2.35,2.91-3,3.58a16.59,16.59,0,0,1-7.71,5.93c-4.89,1.69-5.65,1.79-8.94,1.88-1.79.05-2.17.49-4,.28-3.2-.38-9.66-1.81-11.1-2.54s-4.33-2-5.45-3-2.31-1.85-2.88-2.51a53.05,53.05,0,0,1-3.24-4.83,56,56,0,0,1-3-5.74,29.48,29.48,0,0,1-1.41-7,22.23,22.23,0,0,1,1-9c1.32-4,3.67-9.41,5.08-10.35s2.82-4.14,9.22-7.25a41.81,41.81,0,0,1,12-3.76c2.54-.19,9.6.85,10.54,1.5s5.27,2,6.49,3.11,3.57,2.26,5.93,5.55a27.73,27.73,0,0,1,3.67,7,50.57,50.57,0,0,1,1.88,6Zm1.88.94c-.19-1.32.56-.94-1.51-6.77S93.14,83,88.81,79.52a28,28,0,0,0-9.22-5.08c-2-.75-7-1.26-10.21-1.28a33.58,33.58,0,0,0-3.71.53,61.31,61.31,0,0,0-8.28,3.11,74.36,74.36,0,0,0-6.49,3.86c-1.69,1.13-5.36,4.89-6.3,5.64a19.31,19.31,0,0,0-4.23,6.21,25.51,25.51,0,0,0-1,5.83c0,.94-1.19,4.58-1.19,5.61a17.57,17.57,0,0,0,.62,4c.28.85,2.07,8.19,4.33,11.86s3,5.07,5,7.06c1.06,1.08,1.06.9,2.85,2a53.65,53.65,0,0,0,4.67,3c3.29,1.88,8,2,9.6,2.45a31.39,31.39,0,0,0,9.69.19c1.88-.46,5.46-2,6.21-2.16s4.89-1.88,5.74-2.82A23.36,23.36,0,0,1,89,127.41c.81-.74,2.45-3,3.11-3.76a22.45,22.45,0,0,0,3.33-4c.75-1.5,1.19-2.64,1.75-4.05a72.36,72.36,0,0,0,2.16-7.24c.66-2.63.1-7.34-.09-8.66Z"/></g><path class="cls-4" d="M91.35,97c0,.36-1,.51-1.31.7s.66,2.54.75,3.76a15.55,15.55,0,0,1,.09,5.46,23.58,23.58,0,0,1-1.22,5.36c-.28.66-1.24,3.67-2.16,4.8a17,17,0,0,1-7,6.4C76,125.63,74.42,126,70,125.81s-8.09-.85-10.07-2.35-2.63-.75-5.17-3.1-3.29-2.45-5.65-7.81-1.6-8.65-1.51-11.1a15.2,15.2,0,0,1,2.73-8.28c1.88-2.45,3.11-4,3.48-4.52a6.47,6.47,0,0,1,1.79-1.51c1.13-.75,6.21-3.86,7.25-4.33a11.18,11.18,0,0,1,3.2-.94c.94-.09,4-.19,4-.19,3,0,9.22,1.41,12.42,3.48A27.76,27.76,0,0,1,89,91.85,22.59,22.59,0,0,1,91.35,97Zm4,1.45c-.66-1.51-2.11-5.66-3.29-7.15-1.79-2.26-5.53-6.84-8.75-8.84A26.33,26.33,0,0,0,69.43,79,28.66,28.66,0,0,0,61,80.28a55.53,55.53,0,0,0-7.81,4.33c-4.33,3-7.43,9-8.37,12.23s-.75,9.22-.19,12.7a25.11,25.11,0,0,0,4,9.22,35.08,35.08,0,0,0,2.63,2.64c.94.94,1.51,2,2.26,2.63s2.63,1.41,5.83,2.92a26.59,26.59,0,0,0,9.5,2.45,22.23,22.23,0,0,0,6.58-.75c1.41-.47,4-1,4.89-1.6,1.12-.75,3.67-2.35,4.61-3.1a38,38,0,0,0,3.2-3.58c.75-.85,2.35-2.45,2.63-2.92s1.22-2.73,1.69-3.76a46.9,46.9,0,0,0,1.41-7.43c.09-1.22-.28-6.4-.09-6.77s1-.28,1.41-.38.5.05.19-.66Z"/><g class="cls-6"><g class="cls-7"><g class="cls-8"><g class="cls-9"><g class="cls-10"><rect class="cls-11" x="21.46" y="20.28" width="318.18" height="149.64"/><g class="cls-8"><path class="cls-3" d="M132.38,117.05a13.54,13.54,0,0,1-4.72.87c-7.29,0-9.35-7.24-9.35-12.63h14.53c0-4.31-1.33-9.7-9.4-9.7-6.88,0-10.73,3.75-10.73,11.5,0,8.53,4.67,13.15,12.58,13.15a20.33,20.33,0,0,0,7.09-1.34Zm-14.07-13.87c0-2,1-5.86,4.93-5.86,3.54,0,4.42,2.62,4.42,5.86Z"/><path class="cls-3" d="M159.8,119a15.55,15.55,0,0,1-6.57,1.23c-8.22,0-12.07-4.93-12.07-13.4,0-6.11,2.82-11.25,10.47-11.25,4,0,8.32,2,8.32,5.29a2.85,2.85,0,0,1-3.13,2.77c-3.13,0-2.77-3.6-3.13-4.62a2.19,2.19,0,0,0-2.46-1.7c-3.18,0-4.47,3.18-4.47,8.42s1.8,12.17,8.47,12.17a17,17,0,0,0,4.57-.77Z"/><path class="cls-3" d="M179.53,120.24c7.44,0,11-4,11-12.33s-3.54-12.33-11-12.33-11,4-11,12.33,3.54,12.33,11,12.33m-5.39-12.33c0-5.44.92-10.58,5.39-10.58s5.39,5.13,5.39,10.58-.92,10.58-5.39,10.58-5.39-5.13-5.39-10.58"/><path class="cls-3" d="M214.24,119.67a8.22,8.22,0,0,1-2.93.57c-4.52,0-8.32-.72-8.32-6.73V98.21h-4.16V96.77c6.06,0,7.6-5.29,7.86-9.19h1.49V96.1h6.68v2.1h-6.68v15.3c0,3.44,1.49,4.42,4.16,4.42a5.88,5.88,0,0,0,1.9-.31Z"/><path class="cls-3" d="M223.69,118.59c3,0,3.85-.92,3.85-4.47V102.06c0-3.65-1.85-4.11-3.85-4.11V96.82l9-1.23v6h.1c.87-2.31,2.77-6,7-6a2.8,2.8,0,0,1,2.78,2.67,2.73,2.73,0,0,1-2.78,2.88c-1.85,0-1.49-1.18-3.18-1.18s-3.9,3.13-3.9,8.42v5.75c0,3.54.87,4.47,3.85,4.47v1.13H223.69Z"/><path class="cls-3" d="M268.57,114.18h-.1c-1.08,2.05-3.29,6.06-7.81,6.06-5.75,0-6.83-2.93-6.83-6.83V102.06C253.84,98.41,252,98,250,98V96.82l9-1.23v13.66c0,6.22.92,7.86,3.9,7.86,2.67,0,5.65-5.34,5.65-8.52v-6.52c0-3.65-1.85-4.11-3.85-4.11V96.82l9-1.23v18.18c0,3.65,1.9,4.11,3.85,4.11V119l-9,1.23Z"/><path class="cls-3" d="M300.52,102.52c-.21-1.8-1.28-5.19-5.08-5.19a3.52,3.52,0,0,0-3.8,3.34c0,3.34,5.91,4.62,9.09,7.09a6.7,6.7,0,0,1,2.72,5.49c0,4.21-3.34,7-9.25,7a30.28,30.28,0,0,1-7.14-.92l-.31-6.88h1.49a5.81,5.81,0,0,0,5.8,6.06c2.26,0,4.67-1.28,4.67-3.9,0-3.34-5-4.31-8.11-6.42-2.52-1.75-3.7-3.13-3.7-6,0-4.62,4.06-6.62,8.94-6.62a22.13,22.13,0,0,1,5.85.87l.31,6.06Z"/><path class="cls-3" d="M327.07,119.67a8.22,8.22,0,0,1-2.93.57c-4.52,0-8.32-.72-8.32-6.73V98.21h-4.16V96.77c6.06,0,7.6-5.29,7.86-9.19H321V96.1h6.68v2.1H321v15.3c0,3.44,1.49,4.42,4.16,4.42a5.88,5.88,0,0,0,1.9-.31Z"/><path class="cls-3" d="M73.68,104.18c0,3.3-3.54,4.09-6.41,3.24-3.66-1.47-3.79-6.69-.12-8.89a5.47,5.47,0,0,1,7.57,2.84,5.21,5.21,0,0,1,.31,2.35c-.21.24-1.35-.27-1.35.46m3-6.11c-1.83-2.93-5.16-3.21-8.09-3.21a9.76,9.76,0,0,0-5.13,2.57c-1.1,1.83-2,3.54-1.62,5.74,1.31,5.23,3.87,8.68,10.31,7.53,2.57-.73,3.82-3.52,4.41-6.52.37,0,2.06.17,2.17,0s-.8-4.09-2-6.08"/><path class="cls-3" d="M69.65,82.62a4.81,4.81,0,0,1,2.38.09c.37.73.11,2.4,0,3.15-1.86.09-8.34,1.47-8.67,1.13s-2.09-3.06-1-3.06a28.16,28.16,0,0,1,7.25-1.31"/><path class="cls-3" d="M49.86,105.85c.09-.42,2.76-.41,2.86-.27s1.65,6.39,1.9,6.72.3.75,0,1-1.95,1-1.95,1-.35.23-.58-.23-2.36-7.43-2.19-8.19"/><path class="cls-3" d="M54.82,89.22a3.91,3.91,0,0,1,2.3,1.38c.12.34-2,3.79-2.18,4.36a10.59,10.59,0,0,1-1.61,2.53c-.35.23-2.3-.57-2.64-.8s.92-2.41,1.15-3.22a32.48,32.48,0,0,1,3-4.25"/><path class="cls-3" d="M60.79,118.29c.46,0,2.3.8,3.33,1s3.45.46,3.45.46a.55.55,0,0,1,.23.46c0,.34-.57,2.76-.57,2.76s-2.87-.35-3.56-.57-3.22-1.61-3.57-1.61-.23-.46-.23-.46Z"/><path class="cls-3" d="M74.47,118.86s6-3.33,6.32-3.33,2.18,2,2.18,2l-.11.35s-2.53,1.84-3.45,2.3-4.34,2.3-4.71,2.18-.8-2.53-.69-2.87a1.3,1.3,0,0,1,.46-.57"/><path class="cls-3" d="M86,103.69c.35-.46,2.27-.16,2.27-.16a.43.43,0,0,1,.49.28,29.65,29.65,0,0,1-.34,3.91,20.6,20.6,0,0,1-.92,4.14c-.21.13-.48-.06-.48-.06s-2.37-.83-2.5-1.32S86,103.69,86,103.69"/><path class="cls-3" d="M87.39,92.51s-1.82,1.8-2.5,1.8-1.69-1.77-2.49-2.8a18.43,18.43,0,0,0-2.87-3c-.35-.11-.12-.69-.12-.69a12.75,12.75,0,0,1,1.38-1.72.65.65,0,0,1,.69,0s2.64,2.18,3,2.64c.95,1.27,1,1.12,2.93,3.76"/></g><g class="cls-12"><path class="cls-3" d="M81,103.46c0,.1-.06.56-.34.63-.6.15-1.62-.17-1.62.29a13.22,13.22,0,0,1-1,3.91,8.51,8.51,0,0,1-2.18,3.1,16.72,16.72,0,0,1-3.91,2.18,12.68,12.68,0,0,1-4.14.46c-1-.23-3.45-.35-5.06-2.18s-3.56-4.6-3.56-5.4-.92-3.33-.23-6,1.32-4.42,3.33-6.13a7,7,0,0,1,4.25-1.8c1.84-.46,3.33-.8,4.48-.46s4.14,1.15,5.06,2a11.8,11.8,0,0,1,3.68,4.25A9.94,9.94,0,0,1,81,103.46m2,.07a18.76,18.76,0,0,0,2.62,0,.43.43,0,0,0,.23-.46s0-2.87-.11-4.14a19.27,19.27,0,0,0-.78-4.21.36.36,0,0,0-.49-.05l-2.06.79S80.9,93.7,80,92.78A16.24,16.24,0,0,1,77.8,90.5c-.15-.44,1.07-1.59,1.22-1.89s-.07-.42-.07-.42-2.76-1-3.33-1.26-3.51-1.07-3.74-.73-.28,1.87-.51,2.45-2.07.35-3.68.46-3.32.57-3.57.48S63.27,87,62.86,87c-.73,0-4.71,2.87-5.28,3.79,0,0-.58.35-.12.57S59,92.78,59,93.24a8.19,8.19,0,0,1-1.26,2.41c-.35.46-.8,2.41-1.26,2.76s-2.3-.46-2.64-.58a.24.24,0,0,0-.34.23s-.58,6.66-.58,7-.11.58.58.58,1.72-.46,2.07-.23,1.49,4.6,1.61,5.17a1.27,1.27,0,0,1-.15,1.15c-.2.19-1.46.58-1.81.81a.65.65,0,0,0-.11,1c.35.35,2.3,2,2.64,2.41s3.1,2.3,3.45,2.07.23-.46.23-.46.23-1.72.69-1.84a24.37,24.37,0,0,1,5.52,1.38c.46.35.11,2.3.11,2.3s.09.45.46.46,2.46-.42,2.87-.46c1.1-.11,2.07,0,2.41-.11a.82.82,0,0,0,.46-.46l-.46-2.41s2-1.15,2.53-1.38a21.64,21.64,0,0,1,2.87-1.38c.46,0,1.44,1.7,1.81,1.7s1.41-1.35,2-2.27,1.65-1.95,1.65-2.28-1.88-1.05-2.22-1.51.34-2,.57-2.64a22.18,22.18,0,0,0,.37-3.15"/><path class="cls-3" d="M98.14,97.84c-.1.29-1.35.1-1.45.48s.39,3.56.39,5.4-.53,8.1-1.25,9.44c-.62,1.16-1.06,2.22-1.45,3.09a15.31,15.31,0,0,1-1.54,3.28c-.43.52-2.4,3-3.09,3.66a17,17,0,0,1-7.9,6.07c-5,1.73-5.78,1.83-9.16,1.93-1.83.05-2.22.5-4,.29-3.28-.39-9.89-1.86-11.37-2.6s-4.43-2-5.59-3.09-2.37-1.89-2.95-2.57a53.87,53.87,0,0,1-3.32-4.95,58.24,58.24,0,0,1-3.09-5.88,30.45,30.45,0,0,1-1.44-7.13A22.75,22.75,0,0,1,42,96c1.35-4.14,3.76-9.64,5.21-10.6S50,81.16,56.6,78a42.87,42.87,0,0,1,12.34-3.85c2.6-.19,9.83.87,10.79,1.54s5.4,2,6.65,3.18,3.66,2.31,6.07,5.69a28.37,28.37,0,0,1,3.76,7.13,51.87,51.87,0,0,1,1.93,6.17m1.93,1c-.19-1.35.58-1-1.54-6.94S93.8,81.74,89.37,78.17A28.64,28.64,0,0,0,79.93,73c-2-.77-7.17-1.29-10.46-1.31a34.06,34.06,0,0,0-3.8.54,62.88,62.88,0,0,0-8.48,3.18,76.9,76.9,0,0,0-6.65,4c-1.73,1.16-5.49,5-6.46,5.78a19.83,19.83,0,0,0-4.34,6.36,26.11,26.11,0,0,0-1.06,6c0,1-1.21,4.69-1.21,5.75a18.15,18.15,0,0,0,.63,4.08c.29.87,2.12,8.38,4.43,12.14s3.1,5.19,5.11,7.23c1.09,1.1,1.09.92,2.92,2a54.88,54.88,0,0,0,4.79,3.09c3.37,1.93,8.19,2,9.83,2.51a32.17,32.17,0,0,0,9.93.19c1.93-.47,5.59-2,6.36-2.21s5-1.93,5.88-2.89a24.6,24.6,0,0,1,2.22-2.12c.83-.76,2.51-3.08,3.18-3.85a23,23,0,0,0,3.41-4.14c.77-1.54,1.22-2.7,1.8-4.15a74.24,74.24,0,0,0,2.22-7.42c.67-2.7.1-7.52-.1-8.87"/></g><g class="cls-8"><path class="cls-3" d="M92,96.06c0,.37-1.06.53-1.35.72s.67,2.6.77,3.85a15.88,15.88,0,0,1,.1,5.59,24.15,24.15,0,0,1-1.25,5.49c-.29.68-1.27,3.76-2.22,4.91s-2.5,4.34-7.13,6.55-6.26,2.61-10.79,2.41-8.29-.87-10.31-2.41-2.7-.77-5.3-3.18-3.37-2.51-5.78-8-1.64-8.87-1.54-11.37A15.59,15.59,0,0,1,50,92.15c1.93-2.51,3.18-4.15,3.57-4.63A6.61,6.61,0,0,1,55.35,86c1.16-.77,6.36-4,7.42-4.43a11.38,11.38,0,0,1,3.28-1c1-.1,4-.19,4-.19,3.09,0,9.45,1.44,12.72,3.57a28.53,28.53,0,0,1,6.75,6.84A23,23,0,0,1,92,96.06M96,97.55c-.68-1.54-2.16-5.79-3.37-7.33-1.83-2.31-5.66-7-9-9.06-4.34-2.7-9.54-3.57-14.17-3.57a29.37,29.37,0,0,0-8.67,1.35c-2.7,1-8,4.43-8,4.43-4.43,3.09-7.61,9.25-8.58,12.53s-.77,9.45-.19,13a25.72,25.72,0,0,0,4,9.45,36,36,0,0,0,2.7,2.7c1,1,1.54,2,2.31,2.7s2.7,1.44,6,3a27.26,27.26,0,0,0,9.73,2.51,22.76,22.76,0,0,0,6.75-.77c1.45-.48,4.14-1.06,5-1.64,1.15-.76,3.76-2.41,4.72-3.18A38.65,38.65,0,0,0,88.6,120c.77-.87,2.41-2.51,2.7-3s1.25-2.8,1.73-3.86a48,48,0,0,0,1.44-7.61c.1-1.25-.29-6.55-.09-6.94s1.06-.29,1.44-.39.51.05.19-.67"/></g><path class="cls-13" d="M119.41,64c-.32.57-.57,1-.68,1.28-.41.8-.34,1.25.63,1.25H120l-.09.73s-1.4,0-2.19,0-2.19,0-2.19,0l.09-.73h.51c.84,0,1.21-.23,1.72-1.15.73-1.3,3.89-7,4.55-8.27l.63,0,.61,0c.38,2,1.28,6.3,1.76,8.28.2.87.39,1.14,1.15,1.14h.66l-.09.73s-1.57,0-2.46,0-2.46,0-2.46,0l.1-.73H123c.86,0,1.06-.38.9-1.28L123.66,64C122.5,64,120.52,64,119.41,64Zm4.13-.61c-.31-1.69-.73-3.75-1-5-.54,1-1.82,3.29-2.77,5C120.81,63.38,122.46,63.38,123.54,63.37Z"/><path class="cls-13" d="M135.61,62.2A2.74,2.74,0,0,1,138,60.38c1.14,0,2,.76,1.65,2.91-.36,2.73-1.65,4.17-3.18,4.17a1.5,1.5,0,0,1-1.59-1.18l-.42,2.05c-.13.64,0,.83.74.83h.48l-.1.61s-1.24,0-1.94,0-1.94,0-1.94,0l.12-.61h.47c.64,0,.85-.22,1-.84.25-1,.86-4,1.09-5.36.28-1.6.31-2-.18-2s-.93.93-1.14,2.13l-.45,0c.13-1.18.7-2.67,1.89-2.67S135.74,61.11,135.61,62.2Zm-.45,2.29c-.29,1.6.06,2.39,1,2.39s1.76-.95,2.2-3.56c.29-1.71.07-2.36-.79-2.36S135.61,62.1,135.16,64.49Z"/><path class="cls-13" d="M146.63,61.68c0-.52-.29-.83-.74-.83-.61,0-1.33.45-1.68,2.1l-.92,4.29-.6,0-.6,0c.26-1,.73-3.22.95-4.27.29-1.47.36-2-.12-2s-1,.93-1.21,2.13l-.45,0c.13-1.18.7-2.67,1.89-2.67a1.08,1.08,0,0,1,1.2,1.15A1.86,1.86,0,0,1,146,60.38c.77,0,1.21.51,1.09,1.41s-.49,1.15-1,1.15a.59.59,0,0,1-.64-.76A.83.83,0,0,1,146.63,61.68Z"/><path class="cls-13" d="M148,64.38c.25-1.75,1.33-4,3.44-4,1.5,0,2.48.8,2.26,2.8s-1.33,4.28-3.47,4.28C148.72,67.47,147.73,66.61,148,64.38Zm4.5-1.38c.22-1.62-.2-2.13-1.06-2.13-1.09,0-1.92,1.59-2.24,3.95-.22,1.59.2,2.16,1.06,2.16C151.39,67,152.21,65.5,152.54,63Z"/><path class="cls-13" d="M157.58,66.91c-.47,2.38-1.56,3.26-3,3.26-1,0-1.38-.51-1.33-1.09a.82.82,0,0,1,.83-.82c.39,0,.63.23.6.58a.67.67,0,0,1-.93.57c.1.22.34.35.77.35,1,0,1.43-.73,1.84-2.87l.82-4.2c.22-1.11.29-1.73-.18-1.73s-1,.93-1.18,2.13l-.45,0c.17-1.46.8-2.67,2-2.67,1.34,0,1.31,1.15,1,2.46Zm.71-8a.76.76,0,0,1-.76-.86.9.9,0,0,1,.93-.85.75.75,0,0,1,.76.85A.91.91,0,0,1,158.3,58.93Z"/><path class="cls-13" d="M165.29,65.35c-.47,1.34-1.17,2.11-2.62,2.11-2.05,0-2.71-1.2-2.27-3.54s1.85-3.54,3.45-3.54,1.88.93,1.71,2c-.31,1.79-2.43,2-3.95,2-.31,1.87.1,2.58,1.15,2.58s1.66-.41,2-1.73Zm-.83-2.81c.17-.82,0-1.66-.74-1.66s-1.56.64-2.06,3.16C163.5,64.07,164.18,63.79,164.46,62.54Z"/><path class="cls-13" d="M167.18,63.92c.45-2.38,1.87-3.54,3.47-3.54,1.24,0,1.84.58,1.79,1.5,0,.71-.39,1.06-.92,1.06a.59.59,0,0,1-.66-.73.77.77,0,0,1,1-.58c-.07-.44-.45-.76-1.24-.76-1.06,0-1.73.64-2.2,3s0,3,1.15,3c.93,0,1.57-.55,1.92-1.73l.5.13a2.73,2.73,0,0,1-2.67,2.11C167.43,67.47,166.74,66.24,167.18,63.92Z"/><path class="cls-13" d="M177.47,64.87c-.15,1.56-.69,2.59-1.92,2.59s-1.53-.83-1.25-2.3c.17-.9.64-2.91.87-4.1h-.95l.06-.52c1.59,0,1.91-.74,2.46-2.52h.41c-.19.74-.52,1.88-.66,2.54l1.57,0-.07.55h-1.6l-.8,4.07c-.26,1.36-.12,1.73.36,1.73s.95-.71,1.08-2Z"/><path class="cls-13" d="M183.11,64.38c.25-1.75,1.33-4,3.44-4,1.5,0,2.48.8,2.26,2.8s-1.33,4.28-3.47,4.28C183.79,67.47,182.8,66.61,183.11,64.38Zm4.5-1.38c.22-1.62-.2-2.13-1.06-2.13-1.09,0-1.92,1.59-2.24,3.95-.22,1.59.2,2.16,1.06,2.16C186.46,67,187.27,65.5,187.61,63Z"/><path class="cls-13" d="M193.22,60.54l1.59,0-.06.57-1.62,0L193,62c-.92,6.62-2.16,8.19-3.94,8.19-1.09,0-1.47-.61-1.3-1.28a.78.78,0,0,1,.82-.63.54.54,0,0,1,.57.7.66.66,0,0,1-.93.44c.1.23.34.36.79.36,1.41,0,1.79-1.44,2.23-5a26.22,26.22,0,0,1,.69-3.7h-1l.06-.57,1.14,0c.93-3,2.2-3.62,3.21-3.62a1.21,1.21,0,0,1,1.22,1.44c-.09.76-.45,1.11-1,1.11s-.77-.23-.69-.73a.81.81,0,0,1,1.15-.55.72.72,0,0,0-.79-.85C194.28,57.34,193.64,58.24,193.22,60.54Z"/></g></g></g></g></g></g></g></svg>