<svg id="Layer_1" data-name="Layer 1" xmlns="http://www.w3.org/2000/svg" viewBox="0 0 160 93"><defs><style>.cls-1{fill:#f1f1f1;fill-rule:evenodd;}</style></defs><title>salmon_nation_splash_page_7_10_17</title><path class="cls-1" d="M22,22.82a12.61,12.61,0,0,0-1.29,5.39,35.05,35.05,0,0,0,1.09,8.1A27,27,0,0,0,23,39.73c.45,1,1.3,2.56,1.6,3.39.77,2.06.77,1.09,1.27,4.14s1.12,10.34,8,16.35a26.53,26.53,0,0,0,7.28,4.7c3.2,1.35,7.28,2.54,7.28,2.54a6.33,6.33,0,0,1-1,.54c-.57.23-1.19.31-1.19.43s.49.43,1,.62c.64.25,1.27.38.75.29a13.06,13.06,0,0,0,1.45.07,4.6,4.6,0,0,1,1.25.58,14.9,14.9,0,0,0,2,.43,10.87,10.87,0,0,1,1.75.56c.72.27.84.08,1.44.06A7.41,7.41,0,0,0,57.55,74a7.83,7.83,0,0,0,1.62-.65c.55-.26,2-.71,2-.71s2.38,0,4.1,0a37.71,37.71,0,0,0,4.61-.39l2-.25a1.48,1.48,0,0,1-.5.78c-.21.16-.08.48-.31.65a1.11,1.11,0,0,0-.39.72c0-.53-.1.63-.22.48.22.3.22.24.83.2A24.17,24.17,0,0,0,75.1,74a21.57,21.57,0,0,0,3.38-1.15,37.83,37.83,0,0,0,4.25-2.4c.58-.4,2.08-1.61,2.08-1.61s1.71-.6,3-1.11a110.65,110.65,0,0,0,15.59-8.16c2.48-1.65,3.56-2.42,4.85-3.38,1.52-1.13,3.08-2.51,5.19-4.3A63.54,63.54,0,0,0,122,43c.47-.6.83-1.24,1.19-1.73.85-1.16,1.45-1.81,1.45-1.81s1.06-1.27,1.49-1.82a13.63,13.63,0,0,0,1.48-2.62,5.88,5.88,0,0,1,.92-1.48,8.87,8.87,0,0,1,1-1.16,14.48,14.48,0,0,0,1.9-3c1.06-1.85,2.68-4.36,3.24-5.29a8.51,8.51,0,0,0,1.24-2.59,1.75,1.75,0,0,0-.46-1.26c-.41-.39-.87-.43-1.53,0a12.16,12.16,0,0,1-1.9,1,6.29,6.29,0,0,1-1.1.28,5.22,5.22,0,0,1,1-1.46c.7-.7,1.06-.8,1.16-1a.82.82,0,0,0-.23-1.26c-.66-.48-2.2-1.6-7.13-1.46a47.14,47.14,0,0,0-11.66,1.67,113.88,113.88,0,0,0-15.55,5.18C92,26,95.13,24.74,90.74,27.15s-9.69,6-9.69,6-2.1,0-3.66,0-1.48-.1-3,0l-2.63.11a13.18,13.18,0,0,0-1.74.21c-.26.05-1.15.15-2,.36a9.32,9.32,0,0,0-1.55.55,7.14,7.14,0,0,0-.49.88c-.25.57-.85,1.37-.89,1.57-.37,1.79-.39,1.24-.85,1.93-.18.28-.74.67-1,1.21a6.75,6.75,0,0,1-.57,1.53,10.16,10.16,0,0,0-.87,1.71c-.12.31-.52,1.4-.75,2.1a1.37,1.37,0,0,0,0,.89L62.71,46a24.4,24.4,0,0,1,2.68-.23S61.3,49.3,59.56,50.5s-3.07,2.12-4.1,2.69a8.59,8.59,0,0,1-3.68,1.07c-1.64.14-3.65.24-4.24.34A3.28,3.28,0,0,0,46,55c-.47.33-.73.59-.74.89a.84.84,0,0,0,.51.94,8.16,8.16,0,0,0,.86.28,6.35,6.35,0,0,1-3.61.5,14.19,14.19,0,0,1-5-2.83c-2-1.52-2.45-3-2.12-4.14s1.25-1.73,3.1-2.18,4.69-.76,6.8-1.19a12.6,12.6,0,0,0,2.84-1.07,13.43,13.43,0,0,0,3.46-2.58c1.36-1.41,1.42-1.5,1.38-1.63s-.51-.44-.88-.43a3,3,0,0,0-1.23.08,9,9,0,0,1-1.15.28c-.35,0-.66-.26-1.13-.27l-.69,0a4.18,4.18,0,0,1-1.12,0c-.45-.07-.77-.3-1.06-.35-.52-.08-.91.12-1.58,0a22.23,22.23,0,0,1-2.47-.64,15.1,15.1,0,0,1-2.31-.73,22.61,22.61,0,0,1-3-1.54,5.54,5.54,0,0,1-1.39-.94L33.67,36c-.93-.71-.89-1.13-1.74-1.85a16,16,0,0,1-1.77-1.76c-.83-.88-1.26-1.31-1.6-1.67a13,13,0,0,0-1.37-1.21,5.29,5.29,0,0,1-1.58-1.75c-.32-.48-.52-1.1-.81-1.45-.17-.19-.31-.22-.45-.39a7,7,0,0,1-.47-.6,3.36,3.36,0,0,1-.28-.84,2,2,0,0,0-.41-.52c-.24-.29,0-.57-.31-.84s-.59-.51-.84-.34"/></svg>