<svg id="Layer_1" data-name="Layer 1" xmlns="http://www.w3.org/2000/svg" viewBox="0 0 328 198"><defs><style>.cls-1{fill:#fff;stroke:#fff;stroke-miterlimit:10;stroke-width:1.28px;}</style></defs><title>salmon_nation_splash_page_7_10_17</title><path class="cls-1" d="M61.57,45c-.7-4.76-3-11-12.34-11-7.14,0-11.1,3.61-11.1,8.2,0,8.64,15,12.69,21.59,17.8,4.32,3.35,7.4,7.23,7.4,13.22,0,12.43-9.61,17-23,17a59.18,59.18,0,0,1-15.69-2.38L27.9,73.28h2.56C31.52,77.77,33.54,86,45.09,86c7.67,0,12-4.14,12-9.52,0-8.64-10.31-11.81-18.42-17C33.37,56,29,51.77,29,44.72c0-9.52,7.32-15,20.18-15A85.23,85.23,0,0,1,63.6,31.33L64.13,45Z"/><path class="cls-1" d="M114.24,88.61A27.49,27.49,0,0,1,105,90.2c-5.29,0-6.35-3.08-7-6-1.76,1.94-5.55,6-12.07,6-6.08,0-11.55-4.32-11.55-10,0-12.34,18.07-13.13,23.53-13.4V62.35c0-4.76,0-11.46-6.08-11.46-8.72,0-2.73,10.58-10.75,10.58-2.47,0-5-1.41-5-4.49,0-6.35,8.9-9.08,16.13-9.08,11.1,0,14.63,4.41,14.63,14.45V79.89c0,5.38,1.06,7.31,4,7.31a12.14,12.14,0,0,0,3.44-.79ZM97.94,70c-3.35.09-13.92.62-13.92,8.9,0,3.44,1.85,6.26,5.55,6.26,5,0,8.37-3.61,8.37-10Z"/><path class="cls-1" d="M118.33,87.38c5.2,0,6.61-1.59,6.61-7.67V39.17c0-6.26-3.17-7.05-6.61-7.05V30.18l15.51-2.11V79.71c0,6.08,1.5,7.67,6.61,7.67v1.94H118.33Z"/><path class="cls-1" d="M145.11,87.38c5.11,0,6.61-1.59,6.61-7.67V59c0-6.26-3.17-7.05-6.61-7.05V50l15.51-2.11v9.43h.18c1.5-2.82,4.85-9.43,13.13-9.43,9,0,10.13,4.85,10.58,9.78h.18c1.94-3.44,5.11-9.78,13.84-9.78,9.34,0,10,5.46,10,15.33V79.71c0,6.08,1.41,7.67,6.61,7.67v1.94H193.85V87.38c4.58,0,5.82-1.59,5.82-7.67V65.61c0-9.52-.35-12.34-4.76-12.34-6.43,0-10.31,9.34-10.31,14.63V79.71c0,6.08,1.32,7.67,5.82,7.67v1.94H169.88V87.38c4.49,0,5.82-1.59,5.82-7.67v-13c0-10.22-.71-13.48-4.67-13.48-7.4,0-10.4,9.17-10.4,14.63V79.71c0,6.08,1.32,7.67,5.82,7.67v1.94H145.11Z"/><path class="cls-1" d="M216.41,69c0-14.28,6.08-21.15,18.86-21.15S254.13,54.77,254.13,69,248,90.2,235.27,90.2,216.41,83.32,216.41,69ZM235.27,87.2c7.67,0,9.25-8.81,9.25-18.15s-1.59-18.15-9.25-18.15S226,59.71,226,69,227.6,87.2,235.27,87.2Z"/><path class="cls-1" d="M257.48,87.38c5.11,0,6.61-1.59,6.61-7.67V59c0-6.26-3.17-7.05-6.61-7.05V50L273,47.9V58.3h.18c2-3.61,6.08-10.4,14.45-10.4,9,0,10.66,5,10.66,11.72V79.71c0,6.08,1.5,7.67,6.61,7.67v1.94H282.77V87.38c5.11,0,6.61-1.59,6.61-7.67v-13c0-10.66-1.32-13.48-5.64-13.48-5.11,0-10.75,9.17-10.75,14.63V79.71c0,6.08,1.5,7.67,6.61,7.67v1.94H257.48Z"/><path class="cls-1" d="M43,161.78c6.17,0,7.49-1.32,7.49-8.2v-37.9c0-6.87-1.32-8.2-7.49-8.2v-2.2H60.27l27.58,47.33H88V115.69c0-6.87-1.32-8.2-7.49-8.2v-2.2h20.53v2.2c-6.35,0-7.49,1.32-7.49,8.2V164H85.21l-29-49.79H56v39.39c0,6.87,1.23,8.2,7.49,8.2V164H43Z"/><path class="cls-1" d="M142,163.28a27.49,27.49,0,0,1-9.25,1.59c-5.29,0-6.35-3.08-7-6-1.76,1.94-5.55,6-12.07,6-6.08,0-11.55-4.32-11.55-10,0-12.34,18.07-13.13,23.53-13.4V137c0-4.76,0-11.46-6.08-11.46-8.72,0-2.73,10.58-10.75,10.58-2.47,0-5-1.41-5-4.49,0-6.34,8.9-9.08,16.13-9.08,11.1,0,14.63,4.41,14.63,14.45v17.54c0,5.38,1.06,7.32,4,7.32a12.13,12.13,0,0,0,3.44-.79Zm-16.3-18.6c-3.35.09-13.92.62-13.92,8.9,0,3.44,1.85,6.26,5.55,6.26,5,0,8.37-3.61,8.37-10Z"/><path class="cls-1" d="M167.56,163.89a14.14,14.14,0,0,1-5,1c-7.76,0-14.28-1.23-14.28-11.55V127.05h-7.14v-2.47c10.4,0,13-9.08,13.48-15.77h2.56v14.63h11.46v3.61H157.16v26.26c0,5.9,2.56,7.58,7.14,7.58a10.12,10.12,0,0,0,3.26-.53Z"/><path class="cls-1" d="M172.65,162c5.2,0,6.61-1.59,6.61-7.67V133.66c0-6.26-3.17-7.05-6.61-7.05v-1.94l15.51-2.11v31.82c0,6.08,1.41,7.67,6.61,7.67V164H172.65Zm5.73-52.17a5.38,5.38,0,0,1,5.46-5.46,5.51,5.51,0,1,1-5.46,5.46Z"/><path class="cls-1" d="M197.11,143.71c0-14.28,6.08-21.15,18.86-21.15s18.86,6.87,18.86,21.15-6.08,21.15-18.86,21.15S197.11,158,197.11,143.71ZM216,161.87c7.67,0,9.25-8.81,9.25-18.15s-1.59-18.16-9.25-18.16-9.25,8.81-9.25,18.16S208.3,161.87,216,161.87Z"/><path class="cls-1" d="M238.06,162c5.11,0,6.61-1.59,6.61-7.67V133.66c0-6.26-3.17-7.05-6.61-7.05v-1.94l15.51-2.11V133h.18c2-3.61,6.08-10.4,14.45-10.4,9,0,10.66,5,10.66,11.72v20.09c0,6.08,1.5,7.67,6.61,7.67V164H263.36V162c5.11,0,6.61-1.59,6.61-7.67v-13c0-10.66-1.32-13.48-5.64-13.48-5.11,0-10.75,9.17-10.75,14.63v11.81c0,6.08,1.5,7.67,6.61,7.67V164H238.06Z"/></svg>