<svg xmlns="http://www.w3.org/2000/svg" xmlns:xlink="http://www.w3.org/1999/xlink" viewBox="0 0 331.43 155.87"><defs><style>.cls-1{fill:none;}.cls-2{isolation:isolate;}.cls-3{clip-path:url(#clip-path);}.cls-4{clip-path:url(#clip-path-2);}.cls-5{mix-blend-mode:multiply;}.cls-6{clip-path:url(#clip-path-3);}.cls-7{fill:#fff;}.cls-8{fill:#58595b;}.cls-9{clip-path:url(#clip-path-5);}.cls-10{fill:#010101;}</style><clipPath id="clip-path"><rect class="cls-1" width="331.43" height="155.87"/></clipPath><clipPath id="clip-path-2"><rect class="cls-1" width="331.43" height="155.87"/></clipPath><clipPath id="clip-path-3"><rect class="cls-1" x="-23.8" y="-18.51" width="379.04" height="177.03"/></clipPath><clipPath id="clip-path-5"><rect class="cls-1" x="16.67" y="53.52" width="302.31" height="65.73"/></clipPath></defs><title>ecotrust_logo</title><g class="cls-2"><g id="Layer_1" data-name="Layer 1"><g class="cls-3"><g class="cls-4"><g class="cls-5"><g class="cls-6"><rect class="cls-7" width="331.43" height="155.87"/><g class="cls-4"><path class="cls-8" d="M115.54,100.81a14.11,14.11,0,0,1-4.92.91c-7.6,0-9.74-7.54-9.74-13.16H116c0-4.49-1.39-10.11-9.79-10.11-7.17,0-11.18,3.9-11.18,12,0,8.88,4.87,13.7,13.1,13.7a21.17,21.17,0,0,0,7.38-1.39ZM100.89,86.37c0-2.09,1.07-6.1,5.13-6.1,3.69,0,4.6,2.73,4.6,6.1Z"/><path class="cls-8" d="M144.11,102.84a16.19,16.19,0,0,1-6.85,1.28c-8.56,0-12.57-5.13-12.57-14,0-6.37,2.94-11.72,10.91-11.72,4.17,0,8.67,2.09,8.67,5.51,0,2-1.66,2.89-3.26,2.89-3.26,0-2.89-3.75-3.26-4.81a2.28,2.28,0,0,0-2.57-1.77c-3.32,0-4.66,3.32-4.66,8.77s1.87,12.68,8.83,12.68a17.67,17.67,0,0,0,4.76-.8Z"/><path class="cls-8" d="M164.65,104.13c7.76,0,11.44-4.17,11.44-12.84s-3.69-12.84-11.44-12.84S153.2,82.62,153.2,91.29s3.69,12.84,11.45,12.84M159,91.29c0-5.67,1-11,5.62-11s5.62,5.35,5.62,11-1,11-5.62,11S159,97,159,91.29"/><path class="cls-8" d="M200.81,103.54a8.56,8.56,0,0,1-3,.59c-4.71,0-8.67-.75-8.67-7V81.18h-4.34v-1.5c6.31,0,7.92-5.51,8.19-9.57h1.55V79h7v2.19h-7V97.12c0,3.58,1.55,4.6,4.34,4.6a6.13,6.13,0,0,0,2-.32Z"/><path class="cls-8" d="M210.66,102.42c3.1,0,4-1,4-4.66V85.19c0-3.8-1.93-4.28-4-4.28V79.74l9.42-1.29v6.21h.11c.91-2.4,2.89-6.21,7.27-6.21a2.92,2.92,0,0,1,2.89,2.78,2.84,2.84,0,0,1-2.89,3c-1.93,0-1.55-1.23-3.32-1.23s-4.06,3.26-4.06,8.77v6c0,3.69.91,4.66,4,4.66v1.18H210.66Z"/><path class="cls-8" d="M257.41,97.82h-.11c-1.12,2.14-3.43,6.31-8.13,6.31-6,0-7.11-3-7.11-7.12V85.19c0-3.8-1.93-4.28-4-4.28V79.73l9.41-1.28V92.68c0,6.47,1,8.19,4.07,8.19,2.78,0,5.89-5.57,5.89-8.88v-6.8c0-3.8-1.93-4.28-4-4.28V79.73l9.42-1.28V97.39c0,3.8,2,4.28,4,4.28v1.18l-9.42,1.29Z"/><path class="cls-8" d="M290.68,85.67c-.21-1.87-1.34-5.4-5.3-5.4a3.67,3.67,0,0,0-4,3.48c0,3.48,6.15,4.81,9.47,7.38a7,7,0,0,1,2.84,5.72c0,4.39-3.48,7.27-9.63,7.27a31.55,31.55,0,0,1-7.44-1L276.35,96h1.55a6.05,6.05,0,0,0,6,6.31c2.35,0,4.87-1.34,4.87-4.07,0-3.48-5.24-4.49-8.45-6.69-2.62-1.82-3.85-3.26-3.85-6.21,0-4.81,4.22-6.9,9.31-6.9a23,23,0,0,1,6.1.91l.32,6.31Z"/><path class="cls-8" d="M318.34,103.54a8.56,8.56,0,0,1-3,.59c-4.71,0-8.67-.75-8.67-7V81.18h-4.33v-1.5c6.31,0,7.92-5.51,8.18-9.57H312V79h7v2.19h-7V97.12c0,3.58,1.55,4.6,4.34,4.6a6.13,6.13,0,0,0,2-.32Z"/><path class="cls-8" d="M54.4,87.4c0,3.44-3.69,4.26-6.68,3.37-3.82-1.53-3.94-7-.13-9.26a5.7,5.7,0,0,1,7.89,3,5.43,5.43,0,0,1,.32,2.45c-.22.25-1.4-.28-1.4.48M57.54,81C55.63,78,52.17,77.7,49.11,77.7a10.17,10.17,0,0,0-5.34,2.67c-1.15,1.91-2.07,3.69-1.69,6,1.36,5.45,4,9,10.74,7.85,2.67-.76,4-3.67,4.6-6.8.38,0,2.15.17,2.26,0s-.84-4.26-2.13-6.33"/><path class="cls-8" d="M50.2,64.94a5,5,0,0,1,2.48.1c.38.76.12,2.5,0,3.28-1.94.1-8.68,1.53-9,1.18s-2.17-3.18-1-3.18a29.34,29.34,0,0,1,7.55-1.36"/><path class="cls-8" d="M29.59,89.14c.1-.44,2.88-.43,3-.29s1.72,6.65,2,7,.31.79,0,1-2,1-2,1-.36.24-.6-.24-2.45-7.74-2.29-8.53"/><path class="cls-8" d="M34.75,71.81a4.07,4.07,0,0,1,2.39,1.44c.12.36-2,3.95-2.27,4.55a11,11,0,0,1-1.67,2.63c-.36.24-2.4-.6-2.75-.84s1-2.51,1.2-3.35,3.11-4.43,3.11-4.43"/><path class="cls-8" d="M41,102.1c.48,0,2.39.84,3.47,1.08s3.59.48,3.59.48a.57.57,0,0,1,.24.48c0,.35-.6,2.87-.6,2.87s-3-.36-3.71-.6-3.35-1.68-3.71-1.68-.24-.48-.24-.48Z"/><path class="cls-8" d="M55.21,102.7s6.22-3.47,6.58-3.47,2.27,2,2.27,2l-.12.36s-2.63,1.91-3.59,2.39-4.52,2.39-4.91,2.27-.84-2.63-.72-3a1.35,1.35,0,0,1,.48-.6"/><path class="cls-8" d="M67.18,86.9c.36-.48,2.36-.17,2.36-.17a.45.45,0,0,1,.51.29,30.88,30.88,0,0,1-.36,4.07,21.46,21.46,0,0,1-1,4.31c-.21.13-.51-.06-.51-.06s-2.47-.86-2.61-1.38,1.56-7.06,1.56-7.06"/><path class="cls-8" d="M68.68,75.25s-1.89,1.88-2.61,1.88-1.76-1.84-2.59-2.92a19.2,19.2,0,0,0-3-3.11c-.36-.12-.12-.72-.12-.72a13.28,13.28,0,0,1,1.44-1.8.68.68,0,0,1,.72,0s2.75,2.27,3.11,2.75c1,1.32,1,1.17,3,3.91"/></g><g class="cls-9"><path class="cls-8" d="M62,86.66c0,.11-.06.58-.35.65-.62.16-1.69-.17-1.69.3a13.77,13.77,0,0,1-1.08,4.07c-.6,1.08-1.2,2.51-2.27,3.23a17.42,17.42,0,0,1-4.07,2.27,13.21,13.21,0,0,1-4.31.48c-1.08-.24-3.59-.36-5.27-2.27s-3.71-4.79-3.71-5.62-1-3.47-.24-6.23,1.37-4.6,3.47-6.39A7.32,7.32,0,0,1,47,75.29c1.91-.48,3.47-.84,4.67-.48s4.31,1.2,5.27,2a12.29,12.29,0,0,1,3.83,4.43A10.36,10.36,0,0,1,62,86.66m2.06.08a19.54,19.54,0,0,0,2.73,0,.45.45,0,0,0,.24-.48s0-3-.12-4.31a20.08,20.08,0,0,0-.81-4.38.37.37,0,0,0-.51-.06l-2.15.82S61.92,76.48,61,75.53a16.91,16.91,0,0,1-2.27-2.38c-.15-.45,1.11-1.65,1.27-2s-.08-.44-.08-.44S57,69.66,56.41,69.42s-3.65-1.12-3.89-.76-.29,2-.53,2.55-2.16.36-3.83.48-3.46.6-3.71.5-.89-2.67-1.31-2.66c-.76,0-4.91,3-5.5,4,0,0-.6.36-.12.6s1.56,1.44,1.56,1.92a8.53,8.53,0,0,1-1.32,2.51c-.36.48-.84,2.52-1.32,2.87s-2.39-.48-2.75-.6a.25.25,0,0,0-.36.24s-.6,6.94-.6,7.3-.12.6.6.6,1.79-.48,2.15-.24,1.56,4.79,1.68,5.39A1.32,1.32,0,0,1,37,95.27c-.2.2-1.52.6-1.88.84A.67.67,0,0,0,35,97.19c.36.36,2.39,2,2.75,2.52s3.23,2.39,3.59,2.15.24-.48.24-.48.24-1.8.72-1.91A25.39,25.39,0,0,1,48,100.9c.48.36.12,2.39.12,2.39s.09.47.48.48,2.56-.44,3-.48c1.15-.11,2.16,0,2.51-.12a.86.86,0,0,0,.48-.48l-.48-2.51s2-1.2,2.63-1.44a22.55,22.55,0,0,1,3-1.44c.48,0,1.5,1.77,1.88,1.77s1.47-1.41,2.07-2.36,1.72-2,1.72-2.38-2-1.1-2.32-1.57.36-2,.6-2.75a23.1,23.1,0,0,0,.38-3.28"/><path class="cls-8" d="M79.88,80.79c-.1.3-1.4.1-1.51.5s.4,3.71.4,5.62-.55,8.44-1.3,9.84C76.82,98,76.36,99.06,76,100a15.94,15.94,0,0,1-1.6,3.41c-.45.54-2.5,3.11-3.21,3.81s-3,4.52-8.23,6.32-6,1.91-9.54,2c-1.91.06-2.31.52-4.22.3-3.41-.4-10.3-1.94-11.85-2.71s-4.62-2.11-5.82-3.21-2.47-2-3.07-2.68A56.11,56.11,0,0,1,25,102.07,60.66,60.66,0,0,1,21.75,96a31.72,31.72,0,0,1-1.51-7.43,23.7,23.7,0,0,1,1.1-9.64c1.41-4.32,3.91-10,5.42-11s3-4.42,9.84-7.73a44.65,44.65,0,0,1,12.85-4c2.71-.2,10.24.9,11.24,1.61s5.62,2.11,6.93,3.31,3.81,2.41,6.32,5.92a29.55,29.55,0,0,1,3.91,7.43,54,54,0,0,1,2,6.43m2,1c-.2-1.4.6-1-1.61-7.23S75.36,64,70.74,60.31a29.83,29.83,0,0,0-9.84-5.42c-2.11-.8-7.47-1.34-10.9-1.37a35.48,35.48,0,0,0-4,.56,65.5,65.5,0,0,0-8.84,3.31,80.1,80.1,0,0,0-6.93,4.12c-1.81,1.21-5.72,5.22-6.73,6A20.65,20.65,0,0,0,19,74.16a27.2,27.2,0,0,0-1.1,6.23c0,1-1.26,4.89-1.26,6a18.91,18.91,0,0,0,.66,4.25c.3.9,2.21,8.73,4.62,12.65s3.22,5.41,5.32,7.53c1.13,1.15,1.13,1,3,2.1a57.17,57.17,0,0,0,5,3.22c3.52,2,8.53,2.11,10.24,2.61a33.51,33.51,0,0,0,10.34.2c2-.49,5.82-2.11,6.63-2.31s5.22-2,6.12-3a25.62,25.62,0,0,1,2.31-2.21c.86-.79,2.61-3.21,3.31-4a24,24,0,0,0,3.55-4.31c.8-1.61,1.27-2.81,1.87-4.32A77.33,77.33,0,0,0,82,91c.7-2.81.1-7.83-.1-9.24"/></g><g class="cls-4"><path class="cls-8" d="M73.45,78.94c0,.38-1.1.55-1.4.75s.7,2.71.8,4a16.54,16.54,0,0,1,.1,5.82,25.16,25.16,0,0,1-1.3,5.72c-.3.7-1.32,3.91-2.31,5.12s-2.61,4.52-7.43,6.83-6.53,2.71-11.24,2.51-8.63-.9-10.74-2.51-2.81-.8-5.52-3.31-3.52-2.61-6-8.33-1.71-9.24-1.61-11.85a16.24,16.24,0,0,1,2.91-8.83c2-2.61,3.31-4.32,3.72-4.82a6.88,6.88,0,0,1,1.91-1.61c1.21-.8,6.63-4.12,7.73-4.62a11.85,11.85,0,0,1,3.41-1c1-.1,4.22-.2,4.22-.2,3.21,0,9.84,1.51,13.25,3.71a29.72,29.72,0,0,1,7,7.13,24,24,0,0,1,2.51,5.48m4.22,1.55c-.7-1.61-2.25-6-3.52-7.63-1.91-2.41-5.9-7.3-9.33-9.44-4.52-2.81-9.94-3.71-14.76-3.71a30.6,30.6,0,0,0-9,1.4c-2.81,1-8.33,4.62-8.33,4.62-4.62,3.21-7.93,9.64-8.93,13.05s-.8,9.84-.2,13.55a26.79,26.79,0,0,0,4.21,9.84A37.49,37.49,0,0,0,30.58,105c1,1,1.61,2.11,2.41,2.81s2.81,1.51,6.22,3.11a28.4,28.4,0,0,0,10.14,2.61,23.71,23.71,0,0,0,7-.8c1.51-.5,4.32-1.1,5.22-1.71,1.2-.8,3.91-2.51,4.92-3.31a40.26,40.26,0,0,0,3.41-3.81c.8-.9,2.51-2.61,2.81-3.11s1.3-2.91,1.81-4a50,50,0,0,0,1.51-7.93c.1-1.31-.3-6.83-.1-7.23s1.1-.3,1.51-.4.53.06.2-.7"/></g><path class="cls-10" d="M102,45.53c-.33.59-.59,1.08-.71,1.34-.43.83-.35,1.31.65,1.31h.7l-.09.76s-1.46,0-2.28,0-2.28,0-2.28,0l.09-.76h.53c.88,0,1.26-.24,1.79-1.2.76-1.35,4.05-7.24,4.74-8.61l.65,0,.64,0c.39,2.07,1.34,6.56,1.84,8.62.21.91.41,1.18,1.2,1.18h.68l-.09.76s-1.64,0-2.57,0-2.57,0-2.57,0l.11-.76h.67c.9,0,1.11-.39.94-1.34l-.23-1.31C105.25,45.5,103.19,45.5,102,45.53Zm4.3-.64c-.32-1.76-.76-3.9-1.06-5.24-.56,1-1.9,3.43-2.88,5.24C103.49,44.91,105.21,44.91,106.33,44.89Z"/><path class="cls-10" d="M118.91,43.68a2.85,2.85,0,0,1,2.44-1.9c1.18,0,2,.79,1.72,3-.38,2.84-1.72,4.34-3.31,4.34a1.56,1.56,0,0,1-1.66-1.23l-.44,2.14c-.14.67,0,.87.77.87h.5l-.11.64s-1.29,0-2,0-2,0-2,0l.12-.64h.49c.67,0,.88-.23,1-.88.26-1.09.9-4.16,1.14-5.59.29-1.67.32-2.08-.18-2.08s-1,1-1.18,2.22l-.47,0c.14-1.23.73-2.78,2-2.78S119,42.54,118.91,43.68Zm-.47,2.38c-.3,1.67.06,2.49,1,2.49s1.84-1,2.29-3.7c.3-1.78.08-2.46-.82-2.46S118.91,43.57,118.44,46.06Z"/><path class="cls-10" d="M130.38,43.13c0-.55-.3-.87-.77-.87-.64,0-1.38.47-1.75,2.19l-1,4.46-.62,0-.62,0c.27-1.08.76-3.36,1-4.45.3-1.53.38-2.08-.12-2.08s-1,1-1.26,2.22l-.47,0c.14-1.23.73-2.78,2-2.78A1.13,1.13,0,0,1,128,43a1.94,1.94,0,0,1,1.72-1.2c.8,0,1.26.53,1.14,1.47s-.52,1.2-1,1.2a.62.62,0,0,1-.67-.79A.86.86,0,0,1,130.38,43.13Z"/><path class="cls-10" d="M131.85,45.94c.26-1.82,1.38-4.16,3.58-4.16,1.56,0,2.58.83,2.35,2.92s-1.38,4.46-3.61,4.46C132.57,49.16,131.53,48.26,131.85,45.94Zm4.69-1.44c.23-1.68-.21-2.22-1.11-2.22-1.14,0-2,1.65-2.34,4.11-.23,1.65.21,2.25,1.11,2.25C135.35,48.64,136.2,47.11,136.54,44.5Z"/><path class="cls-10" d="M141.79,48.58c-.49,2.47-1.62,3.4-3.11,3.4-1,0-1.44-.53-1.38-1.14a.85.85,0,0,1,.87-.85c.41,0,.65.24.62.61a.7.7,0,0,1-1,.59c.11.23.35.36.8.36,1,0,1.49-.76,1.91-3l.85-4.37c.23-1.15.3-1.81-.18-1.81s-1,1-1.23,2.22l-.47,0c.18-1.52.83-2.78,2-2.78,1.4,0,1.37,1.2,1.09,2.57Zm.74-8.32a.79.79,0,0,1-.79-.9.94.94,0,0,1,1-.88.78.78,0,0,1,.79.88A.94.94,0,0,1,142.54,40.26Z"/><path class="cls-10" d="M149.82,47c-.49,1.4-1.21,2.2-2.73,2.2-2.14,0-2.82-1.25-2.37-3.69s1.93-3.69,3.6-3.69,2,1,1.78,2.11c-.32,1.87-2.54,2.09-4.11,2-.32,1.94.11,2.69,1.2,2.69s1.73-.42,2.13-1.81ZM149,44c.18-.85,0-1.73-.77-1.73-1,0-1.62.67-2.14,3.29C148,45.62,148.67,45.33,149,44Z"/><path class="cls-10" d="M151.79,45.47c.47-2.47,1.94-3.69,3.61-3.69,1.29,0,1.91.61,1.87,1.56,0,.74-.41,1.11-1,1.11a.62.62,0,0,1-.68-.76.8.8,0,0,1,1.09-.61c-.08-.46-.47-.79-1.29-.79-1.11,0-1.81.67-2.29,3.16s0,3.17,1.2,3.17c1,0,1.64-.58,2-1.81l.52.14a2.84,2.84,0,0,1-2.78,2.2C152.05,49.16,151.34,47.88,151.79,45.47Z"/><path class="cls-10" d="M162.51,46.45c-.15,1.62-.71,2.7-2,2.7s-1.59-.87-1.31-2.4c.18-.94.67-3,.91-4.27h-1l.06-.55c1.66,0,2-.77,2.57-2.63h.42c-.2.77-.55,2-.68,2.64l1.64,0-.08.58h-1.67l-.83,4.24c-.27,1.41-.12,1.81.38,1.81s1-.74,1.12-2.12Z"/><path class="cls-10" d="M168.38,45.94c.26-1.82,1.38-4.16,3.58-4.16,1.56,0,2.58.83,2.35,2.92s-1.38,4.46-3.61,4.46C169.09,49.16,168.06,48.26,168.38,45.94Zm4.69-1.44c.23-1.68-.21-2.22-1.11-2.22-1.14,0-2,1.65-2.34,4.11-.23,1.65.21,2.25,1.11,2.25C171.87,48.64,172.72,47.11,173.07,44.5Z"/><path class="cls-10" d="M178.91,41.95l1.66,0-.06.59-1.69,0-.12,1c-1,6.89-2.25,8.53-4.1,8.53-1.14,0-1.53-.64-1.35-1.34a.81.81,0,0,1,.85-.65.56.56,0,0,1,.59.73.69.69,0,0,1-1,.46c.11.24.35.38.82.38,1.47,0,1.87-1.5,2.32-5.22a27.32,27.32,0,0,1,.71-3.86H176.5l.06-.59,1.18,0c1-3.11,2.29-3.77,3.34-3.77a1.26,1.26,0,0,1,1.27,1.5c-.09.79-.47,1.15-1,1.15s-.8-.24-.71-.76a.85.85,0,0,1,1.2-.58.75.75,0,0,0-.82-.88C180,38.61,179.35,39.55,178.91,41.95Z"/></g></g></g></g></g></g></svg>